<svg width="28" height="28" viewBox="0 0 28 28" fill="none" xmlns="http://www.w3.org/2000/svg">
<path d="M13.9866 0.666626C6.62663 0.666626 0.666626 6.63996 0.666626 14C0.666626 21.36 6.62663 27.3333 13.9866 27.3333C21.36 27.3333 27.3333 21.36 27.3333 14C27.3333 6.63996 21.36 0.666626 13.9866 0.666626ZM14 24.6666C8.10663 24.6666 3.33329 19.8933 3.33329 14C3.33329 8.10663 8.10663 3.33329 14 3.33329C19.8933 3.33329 24.6666 8.10663 24.6666 14C24.6666 19.8933 19.8933 24.6666 14 24.6666ZM18.6666 12.6666C19.7733 12.6666 20.6666 11.7733 20.6666 10.6666C20.6666 9.55996 19.7733 8.66663 18.6666 8.66663C17.56 8.66663 16.6666 9.55996 16.6666 10.6666C16.6666 11.7733 17.56 12.6666 18.6666 12.6666ZM9.33329 12.6666C10.44 12.6666 11.3333 11.7733 11.3333 10.6666C11.3333 9.55996 10.44 8.66663 9.33329 8.66663C8.22663 8.66663 7.33329 9.55996 7.33329 10.6666C7.33329 11.7733 8.22663 12.6666 9.33329 12.6666ZM14 21.3333C17.1066 21.3333 19.7466 19.3866 20.8133 16.6666H7.18663C8.25329 19.3866 10.8933 21.3333 14 21.3333Z" fill="#46F4DB"/>
</svg>
